<svg width="362" height="295" viewBox="0 0 362 295" fill="none" xmlns="http://www.w3.org/2000/svg">
<path d="M21 173.93C21 163.475 29.4754 155 39.9302 155C49.9099 155 58 163.09 58 173.07V271.5C58 281.717 49.7173 290 39.5 290C29.2827 290 21 281.717 21 271.5V173.93Z" fill="url(#paint0_linear_8_171)"/>
<path d="M28.8117 105.745C28.8117 99.8241 33.6115 95.0243 39.5324 95.0243C45.4532 95.0243 50.253 99.8241 50.253 105.745V158.008C50.253 163.929 45.4532 168.729 39.5324 168.729C33.6115 168.729 28.8117 163.929 28.8117 158.008V105.745Z" fill="url(#paint1_linear_8_171)"/>
<path d="M0 89.9594C0 88.316 1.33224 86.9838 2.97565 86.9838H76.0891C77.7325 86.9838 79.0648 88.316 79.0648 89.9594V91.004C79.0648 112.837 61.3655 130.536 39.5324 130.536C17.6993 130.536 0 112.837 0 91.004V89.9594Z" fill="url(#paint2_linear_8_171)"/>
<path d="M0 27.2766C0 25.467 1.46698 24 3.2766 24H15.7234C17.533 24 19 25.467 19 27.2766V91.5C19 96.7467 14.7467 101 9.5 101C4.25329 101 0 96.7467 0 91.5V27.2766Z" fill="url(#paint3_linear_8_171)"/>
<path d="M30.1518 27.507C30.1518 25.5701 31.722 24 33.6588 24H46.076C48.0128 24 49.583 25.5701 49.583 27.507V96.6994C49.583 102.065 45.2332 106.415 39.8674 106.415C34.5016 106.415 30.1518 102.065 30.1518 96.6994V27.507Z" fill="url(#paint4_linear_8_171)"/>
<path d="M60 27.3617C60 25.5051 61.5051 24 63.3617 24H75.6383C77.4949 24 79 25.5051 79 27.3617V93.5C79 98.7467 74.7467 103 69.5 103C64.2533 103 60 98.7467 60 93.5V27.3617Z" fill="url(#paint5_linear_8_171)"/>
<mask id="path-2-outside-1_8_171" maskUnits="userSpaceOnUse" x="63" y="196" width="273" height="66" fill="black">
<rect fill="white" x="63" y="196" width="273" height="66"/>
<path d="M66.68 258C67.52 238.26 67.52 218.94 66.68 199.2H101.624L102.8 207.936L76.172 206.844C76.088 213.564 76.004 220.116 75.92 226.752L98.012 225.744V234.9C91.796 234.9 86.084 233.388 80.372 231.96C78.86 231.54 77.684 231.288 76.76 231.288C73.988 231.288 73.82 233.22 74.66 235.992C75.92 240.444 76.34 248.676 76.508 258H66.68ZM146.289 216C144.609 235.74 144.609 238.26 146.289 258H136.041C136.377 254.052 138.645 247.416 139.569 244.812C139.989 243.72 139.737 242.964 139.233 242.964C138.729 242.964 137.889 243.72 136.965 245.736C136.965 245.652 136.965 245.568 136.965 245.4C132.597 252.54 128.145 258.672 119.157 258.672C110.001 258.672 106.893 251.364 107.229 243.468C107.649 234.984 107.313 229.524 106.137 216H116.721C115.545 229.524 115.545 238.344 115.629 246.828C116.721 249.768 119.157 251.28 122.265 251.28C126.633 251.28 132.345 248.172 137.133 241.872C137.301 234.816 137.049 227.256 136.041 216H146.289ZM186.322 232.716H158.686C158.434 233.976 158.35 235.32 158.35 236.832C158.35 248.34 163.81 250.776 174.142 250.776C181.87 250.776 188.338 247.584 189.682 239.604C189.766 239.016 190.27 238.764 190.774 238.764C191.362 238.764 191.866 239.016 191.866 239.688C192.202 253.548 181.45 258.672 172.21 258.672C158.266 258.672 149.614 250.104 149.614 237C149.614 223.896 159.106 215.328 170.866 215.328C180.106 215.328 189.514 219.948 190.774 229.02C191.026 230.532 189.178 232.716 186.322 232.716ZM170.95 223.224C165.742 223.224 161.29 224.568 159.358 229.944L182.038 229.272C179.938 224.652 175.822 223.224 170.95 223.224ZM195.471 258C196.227 238.26 196.227 218.94 195.471 199.2H205.047C204.207 218.94 204.207 238.26 205.047 258H195.471ZM222.712 218.268C220.36 231.54 218.932 244.644 217.504 258H208.348C212.548 238.26 215.74 218.94 218.344 199.2H232.204C235.984 212.472 240.184 227.256 244.636 240.444C245.56 244.056 246.652 245.904 247.828 245.904C249.004 245.904 250.18 244.056 251.104 240.444C255.556 227.256 259.252 212.472 263.032 199.2H276.808C279.328 218.94 282.436 238.26 286.552 258H276.556C275.128 244.728 273.364 231.54 271.096 218.268C270.508 214.488 269.752 212.556 268.912 212.556C267.988 212.556 266.98 214.404 265.972 218.016C261.52 231.288 257.236 244.644 253.204 258H241.36C237.244 244.644 232.96 231.372 228.508 218.016C227.5 214.404 226.324 212.556 225.232 212.556C224.224 212.556 223.3 214.488 222.712 218.268ZM326.595 232.716H298.959C298.707 233.976 298.623 235.32 298.623 236.832C298.623 248.34 304.083 250.776 314.415 250.776C322.143 250.776 328.611 247.584 329.955 239.604C330.039 239.016 330.543 238.764 331.047 238.764C331.635 238.764 332.139 239.016 332.139 239.688C332.475 253.548 321.723 258.672 312.483 258.672C298.539 258.672 289.887 250.104 289.887 237C289.887 223.896 299.379 215.328 311.139 215.328C320.379 215.328 329.787 219.948 331.047 229.02C331.299 230.532 329.451 232.716 326.595 232.716ZM311.223 223.224C306.015 223.224 301.563 224.568 299.631 229.944L322.311 229.272C320.211 224.652 316.095 223.224 311.223 223.224Z"/>
</mask>
<path d="M66.68 258C67.52 238.26 67.52 218.94 66.68 199.2H101.624L102.8 207.936L76.172 206.844C76.088 213.564 76.004 220.116 75.92 226.752L98.012 225.744V234.9C91.796 234.9 86.084 233.388 80.372 231.96C78.86 231.54 77.684 231.288 76.76 231.288C73.988 231.288 73.82 233.22 74.66 235.992C75.92 240.444 76.34 248.676 76.508 258H66.68ZM146.289 216C144.609 235.74 144.609 238.26 146.289 258H136.041C136.377 254.052 138.645 247.416 139.569 244.812C139.989 243.72 139.737 242.964 139.233 242.964C138.729 242.964 137.889 243.72 136.965 245.736C136.965 245.652 136.965 245.568 136.965 245.4C132.597 252.54 128.145 258.672 119.157 258.672C110.001 258.672 106.893 251.364 107.229 243.468C107.649 234.984 107.313 229.524 106.137 216H116.721C115.545 229.524 115.545 238.344 115.629 246.828C116.721 249.768 119.157 251.28 122.265 251.28C126.633 251.28 132.345 248.172 137.133 241.872C137.301 234.816 137.049 227.256 136.041 216H146.289ZM186.322 232.716H158.686C158.434 233.976 158.35 235.32 158.35 236.832C158.35 248.34 163.81 250.776 174.142 250.776C181.87 250.776 188.338 247.584 189.682 239.604C189.766 239.016 190.27 238.764 190.774 238.764C191.362 238.764 191.866 239.016 191.866 239.688C192.202 253.548 181.45 258.672 172.21 258.672C158.266 258.672 149.614 250.104 149.614 237C149.614 223.896 159.106 215.328 170.866 215.328C180.106 215.328 189.514 219.948 190.774 229.02C191.026 230.532 189.178 232.716 186.322 232.716ZM170.95 223.224C165.742 223.224 161.29 224.568 159.358 229.944L182.038 229.272C179.938 224.652 175.822 223.224 170.95 223.224ZM195.471 258C196.227 238.26 196.227 218.94 195.471 199.2H205.047C204.207 218.94 204.207 238.26 205.047 258H195.471ZM222.712 218.268C220.36 231.54 218.932 244.644 217.504 258H208.348C212.548 238.26 215.74 218.94 218.344 199.2H232.204C235.984 212.472 240.184 227.256 244.636 240.444C245.56 244.056 246.652 245.904 247.828 245.904C249.004 245.904 250.18 244.056 251.104 240.444C255.556 227.256 259.252 212.472 263.032 199.2H276.808C279.328 218.94 282.436 238.26 286.552 258H276.556C275.128 244.728 273.364 231.54 271.096 218.268C270.508 214.488 269.752 212.556 268.912 212.556C267.988 212.556 266.98 214.404 265.972 218.016C261.52 231.288 257.236 244.644 253.204 258H241.36C237.244 244.644 232.96 231.372 228.508 218.016C227.5 214.404 226.324 212.556 225.232 212.556C224.224 212.556 223.3 214.488 222.712 218.268ZM326.595 232.716H298.959C298.707 233.976 298.623 235.32 298.623 236.832C298.623 248.34 304.083 250.776 314.415 250.776C322.143 250.776 328.611 247.584 329.955 239.604C330.039 239.016 330.543 238.764 331.047 238.764C331.635 238.764 332.139 239.016 332.139 239.688C332.475 253.548 321.723 258.672 312.483 258.672C298.539 258.672 289.887 250.104 289.887 237C289.887 223.896 299.379 215.328 311.139 215.328C320.379 215.328 329.787 219.948 331.047 229.02C331.299 230.532 329.451 232.716 326.595 232.716ZM311.223 223.224C306.015 223.224 301.563 224.568 299.631 229.944L322.311 229.272C320.211 224.652 316.095 223.224 311.223 223.224Z" fill="#EDEDED"/>
<path d="M66.68 258L63.6827 257.872L63.5496 261H66.68V258ZM66.68 199.2V196.2H63.5496L63.6827 199.328L66.68 199.2ZM101.624 199.2L104.597 198.8L104.247 196.2H101.624V199.2ZM102.8 207.936L102.677 210.933L106.25 211.08L105.773 207.536L102.8 207.936ZM76.172 206.844L76.2949 203.847L73.2108 203.72L73.1722 206.807L76.172 206.844ZM75.92 226.752L72.9202 226.714L72.88 229.894L76.0567 229.749L75.92 226.752ZM98.012 225.744H101.012V222.604L97.8753 222.747L98.012 225.744ZM98.012 234.9V237.9H101.012V234.9H98.012ZM80.372 231.96L79.5691 234.851L79.6066 234.861L79.6444 234.87L80.372 231.96ZM74.66 235.992L77.5466 235.175L77.5391 235.148L77.5311 235.122L74.66 235.992ZM76.508 258V261H79.5625L79.5075 257.946L76.508 258ZM66.68 258L69.6773 258.128C70.5209 238.303 70.5209 218.897 69.6773 199.072L66.68 199.2L63.6827 199.328C64.5191 218.983 64.5191 238.217 63.6827 257.872L66.68 258ZM66.68 199.2V202.2H101.624V199.2V196.2H66.68V199.2ZM101.624 199.2L98.6508 199.6L99.8268 208.336L102.8 207.936L105.773 207.536L104.597 198.8L101.624 199.2ZM102.8 207.936L102.923 204.939L76.2949 203.847L76.172 206.844L76.0491 209.841L102.677 210.933L102.8 207.936ZM76.172 206.844L73.1722 206.807C73.0882 213.526 73.0042 220.077 72.9202 226.714L75.92 226.752L78.9198 226.79C79.0038 220.155 79.0878 213.602 79.1718 206.881L76.172 206.844ZM75.92 226.752L76.0567 229.749L98.1487 228.741L98.012 225.744L97.8753 222.747L75.7833 223.755L75.92 226.752ZM98.012 225.744H95.012V234.9H98.012H101.012V225.744H98.012ZM98.012 234.9V231.9C92.2356 231.9 86.9 230.5 81.0996 229.05L80.372 231.96L79.6444 234.87C85.268 236.276 91.3564 237.9 98.012 237.9V234.9ZM80.372 231.96L81.1749 229.069C79.6593 228.648 78.1329 228.288 76.76 228.288V231.288V234.288C77.2351 234.288 78.0607 234.432 79.5691 234.851L80.372 231.96ZM76.76 231.288V228.288C75.7511 228.288 74.6517 228.459 73.655 229.029C72.5842 229.641 71.8773 230.575 71.5167 231.63C70.897 233.444 71.3608 235.449 71.7889 236.862L74.66 235.992L77.5311 235.122C77.3521 234.531 77.2603 234.091 77.228 233.779C77.1939 233.449 77.2439 233.426 77.1943 233.571C77.1643 233.658 77.1037 233.789 76.9923 233.927C76.8788 234.068 76.7495 234.171 76.6337 234.237C76.4218 234.359 76.3829 234.288 76.76 234.288V231.288ZM74.66 235.992L71.7734 236.809C72.906 240.811 73.3385 248.617 73.5085 258.054L76.508 258L79.5075 257.946C79.3415 248.735 78.934 240.077 77.5466 235.175L74.66 235.992ZM76.508 258V255H66.68V258V261H76.508V258ZM146.289 216L149.278 216.254L149.555 213H146.289V216ZM146.289 258V261H149.555L149.278 257.746L146.289 258ZM136.041 258L133.052 257.746L132.775 261H136.041V258ZM139.569 244.812L136.769 243.735L136.755 243.772L136.742 243.809L139.569 244.812ZM136.965 245.736H133.965L139.692 246.986L136.965 245.736ZM136.965 245.4H139.965V234.747L134.406 243.834L136.965 245.4ZM107.229 243.468L104.233 243.32L104.232 243.33L104.232 243.34L107.229 243.468ZM106.137 216V213H102.865L103.148 216.26L106.137 216ZM116.721 216L119.71 216.26L119.993 213H116.721V216ZM115.629 246.828L112.629 246.858L112.634 247.382L112.817 247.873L115.629 246.828ZM137.133 241.872L139.522 243.687L140.109 242.914L140.132 241.943L137.133 241.872ZM136.041 216V213H132.76L133.053 216.268L136.041 216ZM146.289 216L143.3 215.746C141.605 235.655 141.605 238.345 143.3 258.254L146.289 258L149.278 257.746C147.613 238.175 147.613 235.825 149.278 216.254L146.289 216ZM146.289 258V255H136.041V258V261H146.289V258ZM136.041 258L139.03 258.254C139.171 256.6 139.746 254.198 140.464 251.744C141.166 249.344 141.942 247.094 142.396 245.815L139.569 244.812L136.742 243.809C136.272 245.134 135.452 247.504 134.705 250.06C133.974 252.562 133.247 255.452 133.052 257.746L136.041 258ZM139.569 244.812L142.369 245.889C142.712 244.998 142.92 243.908 142.674 242.818C142.425 241.716 141.415 239.964 139.233 239.964V242.964V245.964C138.542 245.964 137.896 245.68 137.436 245.221C137.021 244.806 136.873 244.37 136.821 244.139C136.722 243.7 136.846 243.534 136.769 243.735L139.569 244.812ZM139.233 242.964V239.964C137.621 239.964 136.52 241.027 136.005 241.611C135.357 242.347 134.771 243.322 134.238 244.486L136.965 245.736L139.692 246.986C140.083 246.134 140.379 245.723 140.508 245.577C140.571 245.506 140.535 245.565 140.384 245.659C140.248 245.744 139.845 245.964 139.233 245.964V242.964ZM136.965 245.736H139.965C139.965 245.736 139.965 245.736 139.965 245.736C139.965 245.735 139.965 245.735 139.965 245.735C139.965 245.735 139.965 245.735 139.965 245.735C139.965 245.734 139.965 245.734 139.965 245.734C139.965 245.734 139.965 245.734 139.965 245.734C139.965 245.733 139.965 245.733 139.965 245.733C139.965 245.733 139.965 245.733 139.965 245.733C139.965 245.732 139.965 245.732 139.965 245.732C139.965 245.732 139.965 245.732 139.965 245.732C139.965 245.731 139.965 245.731 139.965 245.731C139.965 245.731 139.965 245.731 139.965 245.731C139.965 245.73 139.965 245.73 139.965 245.73C139.965 245.73 139.965 245.73 139.965 245.73C139.965 245.729 139.965 245.729 139.965 245.729C139.965 245.729 139.965 245.729 139.965 245.729C139.965 245.728 139.965 245.728 139.965 245.728C139.965 245.728 139.965 245.728 139.965 245.728C139.965 245.727 139.965 245.727 139.965 245.727C139.965 245.727 139.965 245.727 139.965 245.727C139.965 245.726 139.965 245.726 139.965 245.726C139.965 245.726 139.965 245.726 139.965 245.726C139.965 245.725 139.965 245.725 139.965 245.725C139.965 245.725 139.965 245.725 139.965 245.725C139.965 245.725 139.965 245.724 139.965 245.724C139.965 245.724 139.965 245.724 139.965 245.724C139.965 245.724 139.965 245.723 139.965 245.723C139.965 245.723 139.965 245.723 139.965 245.723C139.965 245.723 139.965 245.722 139.965 245.722C139.965 245.722 139.965 245.722 139.965 245.722C139.965 245.722 139.965 245.721 139.965 245.721C139.965 245.721 139.965 245.721 139.965 245.721C139.965 245.721 139.965 245.72 139.965 245.72C139.965 245.72 139.965 245.72 139.965 245.72C139.965 245.72 139.965 245.719 139.965 245.719C139.965 245.719 139.965 245.719 139.965 245.719C139.965 245.719 139.965 245.718 139.965 245.718C139.965 245.718 139.965 245.718 139.965 245.718C139.965 245.718 139.965 245.717 139.965 245.717C139.965 245.717 139.965 245.717 139.965 245.717C139.965 245.717 139.965 245.716 139.965 245.716C139.965 245.716 139.965 245.716 139.965 245.716C139.965 245.716 139.965 245.715 139.965 245.715C139.965 245.715 139.965 245.715 139.965 245.715C139.965 245.715 139.965 245.714 139.965 245.714C139.965 245.714 139.965 245.714 139.965 245.714C139.965 245.714 139.965 245.713 139.965 245.713C139.965 245.713 139.965 245.713 139.965 245.713C139.965 245.713 139.965 245.712 139.965 245.712C139.965 245.712 139.965 245.712 139.965 245.712C139.965 245.712 139.965 245.711 139.965 245.711C139.965 245.711 139.965 245.711 139.965 245.711C139.965 245.711 139.965 245.71 139.965 245.71C139.965 245.71 139.965 245.71 139.965 245.71C139.965 245.71 139.965 245.709 139.965 245.709C139.965 245.709 139.965 245.709 139.965 245.709C139.965 245.709 139.965 245.708 139.965 245.708C139.965 245.708 139.965 245.708 139.965 245.708C139.965 245.708 139.965 245.707 139.965 245.707C139.965 245.707 139.965 245.707 139.965 245.707C139.965 245.707 139.965 245.707 139.965 245.706C139.965 245.706 139.965 245.706 139.965 245.706C139.965 245.706 139.965 245.706 139.965 245.705C139.965 245.705 139.965 245.705 139.965 245.705C139.965 245.705 139.965 245.705 139.965 245.704C139.965 245.704 139.965 245.704 139.965 245.704C139.965 245.704 139.965 245.704 139.965 245.703C139.965 245.703 139.965 245.703 139.965 245.703C139.965 245.703 139.965 245.702 139.965 245.702C139.965 245.702 139.965 245.702 139.965 245.702C139.965 245.702 139.965 245.701 139.965 245.701C139.965 245.701 139.965 245.701 139.965 245.701C139.965 245.701 139.965 245.7 139.965 245.7C139.965 245.7 139.965 245.7 139.965 245.7C139.965 245.7 139.965 245.699 139.965 245.699C139.965 245.699 139.965 245.699 139.965 245.699C139.965 245.699 139.965 245.698 139.965 245.698C139.965 245.698 139.965 245.698 139.965 245.698C139.965 245.698 139.965 245.697 139.965 245.697C139.965 245.697 139.965 245.697 139.965 245.697C139.965 245.697 139.965 245.696 139.965 245.696C139.965 245.696 139.965 245.696 139.965 245.696C139.965 245.696 139.965 245.695 139.965 245.695C139.965 245.695 139.965 245.695 139.965 245.695C139.965 245.695 139.965 245.694 139.965 245.694C139.965 245.694 139.965 245.694 139.965 245.694C139.965 245.694 139.965 245.693 139.965 245.693C139.965 245.693 139.965 245.693 139.965 245.693C139.965 245.693 139.965 245.692 139.965 245.692C139.965 245.692 139.965 245.692 139.965 245.692C139.965 245.692 139.965 245.691 139.965 245.691C139.965 245.691 139.965 245.691 139.965 245.691C139.965 245.691 139.965 245.69 139.965 245.69C139.965 245.69 139.965 245.69 139.965 245.69C139.965 245.69 139.965 245.689 139.965 245.689C139.965 245.689 139.965 245.689 139.965 245.689C139.965 245.689 139.965 245.688 139.965 245.688C139.965 245.688 139.965 245.688 139.965 245.688C139.965 245.688 139.965 245.687 139.965 245.687C139.965 245.687 139.965 245.687 139.965 245.687C139.965 245.686 139.965 245.686 139.965 245.686C139.965 245.686 139.965 245.686 139.965 245.686C139.965 245.685 139.965 245.685 139.965 245.685C139.965 245.685 139.965 245.685 139.965 245.685C139.965 245.684 139.965 245.684 139.965 245.684C139.965 245.684 139.965 245.684 139.965 245.684C139.965 245.683 139.965 245.683 139.965 245.683C139.965 245.683 139.965 245.683 139.965 245.683C139.965 245.682 139.965 245.682 139.965 245.682C139.965 245.682 139.965 245.682 139.965 245.682C139.965 245.681 139.965 245.681 139.965 245.681C139.965 245.681 139.965 245.681 139.965 245.681C139.965 245.68 139.965 245.68 139.965 245.68C139.965 245.68 139.965 245.68 139.965 245.679C139.965 245.679 139.965 245.679 139.965 245.679C139.965 245.679 139.965 245.679 139.965 245.678C139.965 245.678 139.965 245.678 139.965 245.678C139.965 245.678 139.965 245.678 139.965 245.677C139.965 245.677 139.965 245.677 139.965 245.677C139.965 245.677 139.965 245.677 139.965 245.676C139.965 245.676 139.965 245.676 139.965 245.676C139.965 245.676 139.965 245.676 139.965 245.675C139.965 245.675 139.965 245.675 139.965 245.675C139.965 245.675 139.965 245.674 139.965 245.674C139.965 245.674 139.965 245.674 139.965 245.674C139.965 245.674 139.965 245.673 139.965 245.673C139.965 245.673 139.965 245.673 139.965 245.673C139.965 245.673 139.965 245.672 139.965 245.672C139.965 245.672 139.965 245.672 139.965 245.672C139.965 245.672 139.965 245.671 139.965 245.671C139.965 245.671 139.965 245.671 139.965 245.671C139.965 245.67 139.965 245.67 139.965 245.67C139.965 245.67 139.965 245.67 139.965 245.67C139.965 245.669 139.965 245.669 139.965 245.669C139.965 245.669 139.965 245.669 139.965 245.669C139.965 245.668 139.965 245.668 139.965 245.668C139.965 245.668 139.965 245.668 139.965 245.667C139.965 245.667 139.965 245.667 139.965 245.667C139.965 245.667 139.965 245.667 139.965 245.666C139.965 245.666 139.965 245.666 139.965 245.666C139.965 245.666 139.965 245.666 139.965 245.665C139.965 245.665 139.965 245.665 139.965 245.665C139.965 245.665 139.965 245.664 139.965 245.664C139.965 245.664 139.965 245.664 139.965 245.664C139.965 245.664 139.965 245.663 139.965 245.663C139.965 245.663 139.965 245.663 139.965 245.663C139.965 245.663 139.965 245.662 139.965 245.662C139.965 245.662 139.965 245.662 139.965 245.662C139.965 245.661 139.965 245.661 139.965 245.661C139.965 245.661 139.965 245.661 139.965 245.661C139.965 245.66 139.965 245.66 139.965 245.66C139.965 245.66 139.965 245.66 139.965 245.66C139.965 245.659 139.965 245.659 139.965 245.659C139.965 245.659 139.965 245.659 139.965 245.658C139.965 245.658 139.965 245.658 139.965 245.658C139.965 245.658 139.965 245.658 139.965 245.657C139.965 245.657 139.965 245.657 139.965 245.657C139.965 245.657 139.965 245.656 139.965 245.656C139.965 245.656 139.965 245.656 139.965 245.656C139.965 245.656 139.965 245.655 139.965 245.655C139.965 245.655 139.965 245.655 139.965 245.655C139.965 245.655 139.965 245.654 139.965 245.654C139.965 245.654 139.965 245.654 139.965 245.654C139.965 245.653 139.965 245.653 139.965 245.653C139.965 245.653 139.965 245.653 139.965 245.653C139.965 245.652 139.965 245.652 139.965 245.652C139.965 245.652 139.965 245.652 139.965 245.651C139.965 245.651 139.965 245.651 139.965 245.651C139.965 245.651 139.965 245.651 139.965 245.65C139.965 245.65 139.965 245.65 139.965 245.65C139.965 245.65 139.965 245.649 139.965 245.649C139.965 245.649 139.965 245.649 139.965 245.649C139.965 245.649 139.965 245.648 139.965 245.648C139.965 245.648 139.965 245.648 139.965 245.648C139.965 245.647 139.965 245.647 139.965 245.647C139.965 245.647 139.965 245.647 139.965 245.647C139.965 245.646 139.965 245.646 139.965 245.646C139.965 245.646 139.965 245.646 139.965 245.645C139.965 245.645 139.965 245.645 139.965 245.645C139.965 245.645 139.965 245.644 139.965 245.644C139.965 245.644 139.965 245.644 139.965 245.644C139.965 245.644 139.965 245.643 139.965 245.643C139.965 245.643 139.965 245.643 139.965 245.643C139.965 245.642 139.965 245.642 139.965 245.642C139.965 245.642 139.965 245.642 139.965 245.642C139.965 245.641 139.965 245.641 139.965 245.641C139.965 245.641 139.965 245.641 139.965 245.64C139.965 245.64 139.965 245.64 139.965 245.64C139.965 245.64 139.965 245.639 139.965 245.639C139.965 245.639 139.965 245.639 139.965 245.639C139.965 245.639 139.965 245.638 139.965 245.638C139.965 245.638 139.965 245.638 139.965 245.638C139.965 245.637 139.965 245.637 139.965 245.637C139.965 245.637 139.965 245.637 139.965 245.637C139.965 245.636 139.965 245.636 139.965 245.636C139.965 245.636 139.965 245.636 139.965 245.635C139.965 245.635 139.965 245.635 139.965 245.635C139.965 245.635 139.965 245.634 139.965 245.634C139.965 245.634 139.965 245.634 139.965 245.634C139.965 245.633 139.965 245.633 139.965 245.633C139.965 245.633 139.965 245.633 139.965 245.633C139.965 245.632 139.965 245.632 139.965 245.632C139.965 245.632 139.965 245.632 139.965 245.631C139.965 245.631 139.965 245.631 139.965 245.631C139.965 245.631 139.965 245.63 139.965 245.63C139.965 245.63 139.965 245.63 139.965 245.63C139.965 245.63 139.965 245.629 139.965 245.629C139.965 245.629 139.965 245.629 139.965 245.629C139.965 245.628 139.965 245.628 139.965 245.628C139.965 245.628 139.965 245.628 139.965 245.627C139.965 245.627 139.965 245.627 139.965 245.627C139.965 245.627 139.965 245.626 139.965 245.626C139.965 245.626 139.965 245.626 139.965 245.626C139.965 245.625 139.965 245.625 139.965 245.625C139.965 245.625 139.965 245.625 139.965 245.625C139.965 245.624 139.965 245.624 139.965 245.624C139.965 245.624 139.965 245.624 139.965 245.623C139.965 245.623 139.965 245.623 139.965 245.623C139.965 245.623 139.965 245.622 139.965 245.622C139.965 245.622 139.965 245.622 139.965 245.622C139.965 245.621 139.965 245.621 139.965 245.621C139.965 245.621 139.965 245.621 139.965 245.62C139.965 245.62 139.965 245.62 139.965 245.62C139.965 245.62 139.965 245.619 139.965 245.619C139.965 245.619 139.965 245.619 139.965 245.619C139.965 245.619 139.965 245.618 139.965 245.618C139.965 245.618 139.965 245.618 139.965 245.618C139.965 245.617 139.965 245.617 139.965 245.617C139.965 245.617 139.965 245.617 139.965 245.616C139.965 245.616 139.965 245.616 139.965 245.616C139.965 245.616 139.965 245.615 139.965 245.615C139.965 245.615 139.965 245.615 139.965 245.615C139.965 245.614 139.965 245.614 139.965 245.614C139.965 245.614 139.965 245.614 139.965 245.613C139.965 245.613 139.965 245.613 139.965 245.613C139.965 245.613 139.965 245.612 139.965 245.612C139.965 245.612 139.965 245.612 139.965 245.612C139.965 245.611 139.965 245.611 139.965 245.611C139.965 245.611 139.965 245.611 139.965 245.61C139.965 245.61 139.965 245.61 139.965 245.61C139.965 245.61 139.965 245.609 139.965 245.609C139.965 245.609 139.965 245.609 139.965 245.609C139.965 245.608 139.965 245.608 139.965 245.608C139.965 245.608 139.965 245.608 139.965 245.607C139.965 245.607 139.965 245.607 139.965 245.607C139.965 245.607 139.965 245.606 139.965 245.606C139.965 245.606 139.965 245.606 139.965 245.606C139.965 245.605 139.965 245.605 139.965 245.605C139.965 245.605 139.965 245.605 139.965 245.604C139.965 245.604 139.965 245.604 139.965 245.604C139.965 245.604 139.965 245.603 139.965 245.603C139.965 245.603 139.965 245.603 139.965 245.603C139.965 245.602 139.965 245.602 139.965 245.602C139.965 245.602 139.965 245.602 139.965 245.601C139.965 245.601 139.965 245.601 139.965 245.601C139.965 245.601 139.965 245.6 139.965 245.6C139.965 245.6 139.965 245.6 139.965 245.599C139.965 245.599 139.965 245.599 139.965 245.599C139.965 245.599 139.965 245.598 139.965 245.598C139.965 245.598 139.965 245.598 139.965 245.598C139.965 245.597 139.965 245.597 139.965 245.597C139.965 245.597 139.965 245.597 139.965 245.596C139.965 245.596 139.965 245.596 139.965 245.596C139.965 245.596 139.965 245.595 139.965 245.595C139.965 245.595 139.965 245.595 139.965 245.595C139.965 245.594 139.965 245.594 139.965 245.594C139.965 245.594 139.965 245.594 139.965 245.593C139.965 245.593 139.965 245.593 139.965 245.593C139.965 245.592 139.965 245.592 139.965 245.592C139.965 245.592 139.965 245.592 139.965 245.591C139.965 245.591 139.965 245.591 139.965 245.591C139.965 245.591 139.965 245.59 139.965 245.59C139.965 245.59 139.965 245.59 139.965 245.59C139.965 245.589 139.965 245.589 139.965 245.589C139.965 245.589 139.965 245.588 139.965 245.588C139.965 245.588 139.965 245.588 139.965 245.588C139.965 245.587 139.965 245.587 139.965 245.587C139.965 245.587 139.965 245.587 139.965 245.586C139.965 245.586 139.965 245.586 139.965 245.586C139.965 245.586 139.965 245.585 139.965 245.585C139.965 245.585 139.965 245.585 139.965 245.584C139.965 245.584 139.965 245.584 139.965 245.584C139.965 245.584 139.965 245.583 139.965 245.583C139.965 245.583 139.965 245.583 139.965 245.583C139.965 245.582 139.965 245.582 139.965 245.582C139.965 245.582 139.965 245.581 139.965 245.581C139.965 245.581 139.965 245.581 139.965 245.581C139.965 245.58 139.965 245.58 139.965 245.58C139.965 245.58 139.965 245.58 139.965 245.579C139.965 245.579 139.965 245.579 139.965 245.579C139.965 245.578 139.965 245.578 139.965 245.578C139.965 245.578 139.965 245.578 139.965 245.577C139.965 245.577 139.965 245.577 139.965 245.577C139.965 245.576 139.965 245.576 139.965 245.576C139.965 245.576 139.965 245.576 139.965 245.575C139.965 245.575 139.965 245.575 139.965 245.575C139.965 245.575 139.965 245.574 139.965 245.574C139.965 245.574 139.965 245.574 139.965 245.573C139.965 245.573 139.965 245.573 139.965 245.573C139.965 245.573 139.965 245.572 139.965 245.572C139.965 245.572 139.965 245.572 139.965 245.571C139.965 245.571 139.965 245.571 139.965 245.571C139.965 245.571 139.965 245.57 139.965 245.57C139.965 245.57 139.965 245.57 139.965 245.569C139.965 245.569 139.965 245.569 139.965 245.569C139.965 245.569 139.965 245.568 139.965 245.568C139.965 245.568 139.965 245.568 139.965 245.567C139.965 245.567 139.965 245.567 139.965 245.567C139.965 245.567 139.965 245.566 139.965 245.566C139.965 245.566 139.965 245.566 139.965 245.565C139.965 245.565 139.965 245.565 139.965 245.565C139.965 245.565 139.965 245.564 139.965 245.564C139.965 245.564 139.965 245.564 139.965 245.563C139.965 245.563 139.965 245.563 139.965 245.563C139.965 245.563 139.965 245.562 139.965 245.562C139.965 245.562 139.965 245.562 139.965 245.561C139.965 245.561 139.965 245.561 139.965 245.561C139.965 245.56 139.965 245.56 139.965 245.56C139.965 245.56 139.965 245.56 139.965 245.559C139.965 245.559 139.965 245.559 139.965 245.559C139.965 245.558 139.965 245.558 139.965 245.558C139.965 245.558 139.965 245.558 139.965 245.557C139.965 245.557 139.965 245.557 139.965 245.557C139.965 245.556 139.965 245.556 139.965 245.556C139.965 245.556 139.965 245.555 139.965 245.555C139.965 245.555 139.965 245.555 139.965 245.555C139.965 245.554 139.965 245.554 139.965 245.554C139.965 245.554 139.965 245.553 139.965 245.553C139.965 245.553 139.965 245.553 139.965 245.552C139.965 245.552 139.965 245.552 139.965 245.552C139.965 245.552 139.965 245.551 139.965 245.551C139.965 245.551 139.965 245.551 139.965 245.55C139.965 245.55 139.965 245.55 139.965 245.55C139.965 245.549 139.965 245.549 139.965 245.549C139.965 245.549 139.965 245.549 139.965 245.548C139.965 245.548 139.965 245.548 139.965 245.548C139.965 245.547 139.965 245.547 139.965 245.547C139.965 245.547 139.965 245.546 139.965 245.546C139.965 245.546 139.965 245.546 139.965 245.545C139.965 245.545 139.965 245.545 139.965 245.545C139.965 245.545 139.965 245.544 139.965 245.544C139.965 245.544 139.965 245.544 139.965 245.543C139.965 245.543 139.965 245.543 139.965 245.543C139.965 245.542 139.965 245.542 139.965 245.542C139.965 245.542 139.965 245.541 139.965 245.541C139.965 245.541 139.965 245.541 139.965 245.54C139.965 245.54 139.965 245.54 139.965 245.54C139.965 245.54 139.965 245.539 139.965 245.539C139.965 245.539 139.965 245.539 139.965 245.538C139.965 245.538 139.965 245.538 139.965 245.538C139.965 245.537 139.965 245.537 139.965 245.537C139.965 245.537 139.965 245.536 139.965 245.536C139.965 245.536 139.965 245.536 139.965 245.535C139.965 245.535 139.965 245.535 139.965 245.535C139.965 245.534 139.965 245.534 139.965 245.534C139.965 245.534 139.965 245.534 139.965 245.533C139.965 245.533 139.965 245.533 139.965 245.533C139.965 245.532 139.965 245.532 139.965 245.532C139.965 245.532 139.965 245.531 139.965 245.531C139.965 245.531 139.965 245.531 139.965 245.53C139.965 245.53 139.965 245.53 139.965 245.53C139.965 245.529 139.965 245.529 139.965 245.529C139.965 245.529 139.965 245.528 139.965 245.528C139.965 245.528 139.965 245.528 139.965 245.527C139.965 245.527 139.965 245.527 139.965 245.527C139.965 245.526 139.965 245.526 139.965 245.526C139.965 245.526 139.965 245.525 139.965 245.525C139.965 245.525 139.965 245.525 139.965 245.524C139.965 245.524 139.965 245.524 139.965 245.524C139.965 245.523 139.965 245.523 139.965 245.523C139.965 245.523 139.965 245.522 139.965 245.522C139.965 245.522 139.965 245.522 139.965 245.521C139.965 245.521 139.965 245.521 139.965 245.521C139.965 245.52 139.965 245.52 139.965 245.52C139.965 245.52 139.965 245.519 139.965 245.519C139.965 245.519 139.965 245.519 139.965 245.518C139.965 245.518 139.965 245.518 139.965 245.518C139.965 245.517 139.965 245.517 139.965 245.517C139.965 245.517 139.965 245.516 139.965 245.516C139.965 245.516 139.965 245.516 139.965 245.515C139.965 245.515 139.965 245.515 139.965 245.515C139.965 245.514 139.965 245.514 139.965 245.514C139.965 245.514 139.965 245.513 139.965 245.513C139.965 245.513 139.965 245.513 139.965 245.512C139.965 245.512 139.965 245.512 139.965 245.512C139.965 245.511 139.965 245.511 139.965 245.511C139.965 245.511 139.965 245.51 139.965 245.51C139.965 245.51 139.965 245.51 139.965 245.509C139.965 245.509 139.965 245.509 139.965 245.508C139.965 245.508 139.965 245.508 139.965 245.508C139.965 245.507 139.965 245.507 139.965 245.507C139.965 245.507 139.965 245.506 139.965 245.506C139.965 245.506 139.965 245.506 139.965 245.505C139.965 245.505 139.965 245.505 139.965 245.505C139.965 245.504 139.965 245.504 139.965 245.504C139.965 245.504 139.965 245.503 139.965 245.503C139.965 245.503 139.965 245.502 139.965 245.502C139.965 245.502 139.965 245.502 139.965 245.501C139.965 245.501 139.965 245.501 139.965 245.501C139.965 245.5 139.965 245.5 139.965 245.5C139.965 245.5 139.965 245.499 139.965 245.499C139.965 245.499 139.965 245.499 139.965 245.498C139.965 245.498 139.965 245.498 139.965 245.497C139.965 245.497 139.965 245.497 139.965 245.497C139.965 245.496 139.965 245.496 139.965 245.496C139.965 245.496 139.965 245.495 139.965 245.495C139.965 245.495 139.965 245.495 139.965 245.494C139.965 245.494 139.965 245.494 139.965 245.493C139.965 245.493 139.965 245.493 139.965 245.493C139.965 245.492 139.965 245.492 139.965 245.492C139.965 245.492 139.965 245.491 139.965 245.491C139.965 245.491 139.965 245.491 139.965 245.49C139.965 245.49 139.965 245.49 139.965 245.489C139.965 245.489 139.965 245.489 139.965 245.489C139.965 245.488 139.965 245.488 139.965 245.488C139.965 245.488 139.965 245.487 139.965 245.487C139.965 245.487 139.965 245.486 139.965 245.486C139.965 245.486 139.965 245.486 139.965 245.485C139.965 245.485 139.965 245.485 139.965 245.485C139.965 245.484 139.965 245.484 139.965 245.484C139.965 245.483 139.965 245.483 139.965 245.483C139.965 245.483 139.965 245.482 139.965 245.482C139.965 245.482 139.965 245.482 139.965 245.481C139.965 245.481 139.965 245.481 139.965 245.48C139.965 245.48 139.965 245.48 139.965 245.48C139.965 245.479 139.965 245.479 139.965 245.479C139.965 245.479 139.965 245.478 139.965 245.478C139.965 245.478 139.965 245.477 139.965 245.477C139.965 245.477 139.965 245.477 139.965 245.476C139.965 245.476 139.965 245.476 139.965 245.475C139.965 245.475 139.965 245.475 139.965 245.475C139.965 245.474 139.965 245.474 139.965 245.474C139.965 245.473 139.965 245.473 139.965 245.473C139.965 245.473 139.965 245.472 139.965 245.472C139.965 245.472 139.965 245.472 139.965 245.471C139.965 245.471 139.965 245.471 139.965 245.47C139.965 245.47 139.965 245.47 139.965 245.47C139.965 245.469 139.965 245.469 139.965 245.469C139.965 245.468 139.965 245.468 139.965 245.468C139.965 245.468 139.965 245.467 139.965 245.467C139.965 245.467 139.965 245.466 139.965 245.466C139.965 245.466 139.965 245.466 139.965 245.465C139.965 245.465 139.965 245.465 139.965 245.464C139.965 245.464 139.965 245.464 139.965 245.464C139.965 245.463 139.965 245.463 139.965 245.463C139.965 245.462 139.965 245.462 139.965 245.462C139.965 245.462 139.965 245.461 139.965 245.461C139.965 245.461 139.965 245.46 139.965 245.46C139.965 245.46 139.965 245.46 139.965 245.459C139.965 245.459 139.965 245.459 139.965 245.458C139.965 245.458 139.965 245.458 139.965 245.457C139.965 245.457 139.965 245.457 139.965 245.457C139.965 245.456 139.965 245.456 139.965 245.456C139.965 245.455 139.965 245.455 139.965 245.455C139.965 245.455 139.965 245.454 139.965 245.454C139.965 245.454 139.965 245.453 139.965 245.453C139.965 245.453 139.965 245.453 139.965 245.452C139.965 245.452 139.965 245.452 139.965 245.451C139.965 245.451 139.965 245.451 139.965 245.45C139.965 245.45 139.965 245.45 139.965 245.45C139.965 245.449 139.965 245.449 139.965 245.449C139.965 245.448 139.965 245.448 139.965 245.448C139.965 245.447 139.965 245.447 139.965 245.447C139.965 245.447 139.965 245.446 139.965 245.446C139.965 245.446 139.965 245.445 139.965 245.445C139.965 245.445 139.965 245.445 139.965 245.444C139.965 245.444 139.965 245.444 139.965 245.443C139.965 245.443 139.965 245.443 139.965 245.442C139.965 245.442 139.965 245.442 139.965 245.442C139.965 245.441 139.965 245.441 139.965 245.441C139.965 245.44 139.965 245.44 139.965 245.44C139.965 245.439 139.965 245.439 139.965 245.439C139.965 245.438 139.965 245.438 139.965 245.438C139.965 245.438 139.965 245.437 139.965 245.437C139.965 245.437 139.965 245.436 139.965 245.436C139.965 245.436 139.965 245.435 139.965 245.435C139.965 245.435 139.965 245.435 139.965 245.434C139.965 245.434 139.965 245.434 139.965 245.433C139.965 245.433 139.965 245.433 139.965 245.432C139.965 245.432 139.965 245.432 139.965 245.431C139.965 245.431 139.965 245.431 139.965 245.431C139.965 245.43 139.965 245.43 139.965 245.43C139.965 245.429 139.965 245.429 139.965 245.429C139.965 245.428 139.965 245.428 139.965 245.428C139.965 245.427 139.965 245.427 139.965 245.427C139.965 245.427 139.965 245.426 139.965 245.426C139.965 245.426 139.965 245.425 139.965 245.425C139.965 245.425 139.965 245.424 139.965 245.424C139.965 245.424 139.965 245.423 139.965 245.423C139.965 245.423 139.965 245.422 139.965 245.422C139.965 245.422 139.965 245.422 139.965 245.421C139.965 245.421 139.965 245.421 139.965 245.42C139.965 245.42 139.965 245.42 139.965 245.419C139.965 245.419 139.965 245.419 139.965 245.418C139.965 245.418 139.965 245.418 139.965 245.417C139.965 245.417 139.965 245.417 139.965 245.416C139.965 245.416 139.965 245.416 139.965 245.416C139.965 245.415 139.965 245.415 139.965 245.415C139.965 245.414 139.965 245.414 139.965 245.414C139.965 245.413 139.965 245.413 139.965 245.413C139.965 245.412 139.965 245.412 139.965 245.412C139.965 245.411 139.965 245.411 139.965 245.411C139.965 245.41 139.965 245.41 139.965 245.41C139.965 245.409 139.965 245.409 139.965 245.409C139.965 245.408 139.965 245.408 139.965 245.408C139.965 245.407 139.965 245.407 139.965 245.407C139.965 245.407 139.965 245.406 139.965 245.406C139.965 245.406 139.965 245.405 139.965 245.405C139.965 245.405 139.965 245.404 139.965 245.404C139.965 245.404 139.965 245.403 139.965 245.403C139.965 245.403 139.965 245.402 139.965 245.402C139.965 245.402 139.965 245.401 139.965 245.401C139.965 245.401 139.965 245.4 139.965 245.4H136.965H133.965C133.965 245.4 133.965 245.401 133.965 245.401C133.965 245.401 133.965 245.402 133.965 245.402C133.965 245.402 133.965 245.403 133.965 245.403C133.965 245.403 133.965 245.404 133.965 245.404C133.965 245.404 133.965 245.405 133.965 245.405C133.965 245.405 133.965 245.406 133.965 245.406C133.965 245.406 133.965 245.407 133.965 245.407C133.965 245.407 133.965 245.407 133.965 245.408C133.965 245.408 133.965 245.408 133.965 245.409C133.965 245.409 133.965 245.409 133.965 245.41C133.965 245.41 133.965 245.41 133.965 245.411C133.965 245.411 133.965 245.411 133.965 245.412C133.965 245.412 133.965 245.412 133.965 245.413C133.965 245.413 133.965 245.413 133.965 245.414C133.965 245.414 133.965 245.414 133.965 245.415C133.965 245.415 133.965 245.415 133.965 245.416C133.965 245.416 133.965 245.416 133.965 245.416C133.965 245.417 133.965 245.417 133.965 245.417C133.965 245.418 133.965 245.418 133.965 245.418C133.965 245.419 133.965 245.419 133.965 245.419C133.965 245.42 133.965 245.42 133.965 245.42C133.965 245.421 133.965 245.421 133.965 245.421C133.965 245.422 133.965 245.422 133.965 245.422C133.965 245.422 133.965 245.423 133.965 245.423C133.965 245.423 133.965 245.424 133.965 245.424C133.965 245.424 133.965 245.425 133.965 245.425C133.965 245.425 133.965 245.426 133.965 245.426C133.965 245.426 133.965 245.427 133.965 245.427C133.965 245.427 133.965 245.427 133.965 245.428C133.965 245.428 133.965 245.428 133.965 245.429C133.965 245.429 133.965 245.429 133.965 245.43C133.965 245.43 133.965 245.43 133.965 245.431C133.965 245.431 133.965 245.431 133.965 245.431C133.965 245.432 133.965 245.432 133.965 245.432C133.965 245.433 133.965 245.433 133.965 245.433C133.965 245.434 133.965 245.434 133.965 245.434C133.965 245.435 133.965 245.435 133.965 245.435C133.965 245.435 133.965 245.436 133.965 245.436C133.965 245.436 133.965 245.437 133.965 245.437C133.965 245.437 133.965 245.438 133.965 245.438C133.965 245.438 133.965 245.438 133.965 245.439C133.965 245.439 133.965 245.439 133.965 245.44C133.965 245.44 133.965 245.44 133.965 245.441C133.965 245.441 133.965 245.441 133.965 245.442C133.965 245.442 133.965 245.442 133.965 245.442C133.965 245.443 133.965 245.443 133.965 245.443C133.965 245.444 133.965 245.444 133.965 245.444C133.965 245.445 133.965 245.445 133.965 245.445C133.965 245.445 133.965 245.446 133.965 245.446C133.965 245.446 133.965 245.447 133.965 245.447C133.965 245.447 133.965 245.447 133.965 245.448C133.965 245.448 133.965 245.448 133.965 245.449C133.965 245.449 133.965 245.449 133.965 245.45C133.965 245.45 133.965 245.45 133.965 245.45C133.965 245.451 133.965 245.451 133.965 245.451C133.965 245.452 133.965 245.452 133.965 245.452C133.965 245.453 133.965 245.453 133.965 245.453C133.965 245.453 133.965 245.454 133.965 245.454C133.965 245.454 133.965 245.455 133.965 245.455C133.965 245.455 133.965 245.455 133.965 245.456C133.965 245.456 133.965 245.456 133.965 245.457C133.965 245.457 133.965 245.457 133.965 245.457C133.965 245.458 133.965 245.458 133.965 245.458C133.965 245.459 133.965 245.459 133.965 245.459C133.965 245.46 133.965 245.46 133.965 245.46C133.965 245.46 133.965 245.461 133.965 245.461C133.965 245.461 133.965 245.462 133.965 245.462C133.965 245.462 133.965 245.462 133.965 245.463C133.965 245.463 133.965 245.463 133.965 245.464C133.965 245.464 133.965 245.464 133.965 245.464C133.965 245.465 133.965 245.465 133.965 245.465C133.965 245.466 133.965 245.466 133.965 245.466C133.965 245.466 133.965 245.467 133.965 245.467C133.965 245.467 133.965 245.468 133.965 245.468C133.965 245.468 133.965 245.468 133.965 245.469C133.965 245.469 133.965 245.469 133.965 245.47C133.965 245.47 133.965 245.47 133.965 245.47C133.965 245.471 133.965 245.471 133.965 245.471C133.965 245.472 133.965 245.472 133.965 245.472C133.965 245.472 133.965 245.473 133.965 245.473C133.965 245.473 133.965 245.473 133.965 245.474C133.965 245.474 133.965 245.474 133.965 245.475C133.965 245.475 133.965 245.475 133.965 245.475C133.965 245.476 133.965 245.476 133.965 245.476C133.965 245.477 133.965 245.477 133.965 245.477C133.965 245.477 133.965 245.478 133.965 245.478C133.965 245.478 133.965 245.479 133.965 245.479C133.965 245.479 133.965 245.479 133.965 245.48C133.965 245.48 133.965 245.48 133.965 245.48C133.965 245.481 133.965 245.481 133.965 245.481C133.965 245.482 133.965 245.482 133.965 245.482C133.965 245.482 133.965 245.483 133.965 245.483C133.965 245.483 133.965 245.483 133.965 245.484C133.965 245.484 133.965 245.484 133.965 245.485C133.965 245.485 133.965 245.485 133.965 245.485C133.965 245.486 133.965 245.486 133.965 245.486C133.965 245.486 133.965 245.487 133.965 245.487C133.965 245.487 133.965 245.488 133.965 245.488C133.965 245.488 133.965 245.488 133.965 245.489C133.965 245.489 133.965 245.489 133.965 245.489C133.965 245.49 133.965 245.49 133.965 245.49C133.965 245.491 133.965 245.491 133.965 245.491C133.965 245.491 133.965 245.492 133.965 245.492C133.965 245.492 133.965 245.492 133.965 245.493C133.965 245.493 133.965 245.493 133.965 245.493C133.965 245.494 133.965 245.494 133.965 245.494C133.965 245.495 133.965 245.495 133.965 245.495C133.965 245.495 133.965 245.496 133.965 245.496C133.965 245.496 133.965 245.496 133.965 245.497C133.965 245.497 133.965 245.497 133.965 245.497C133.965 245.498 133.965 245.498 133.965 245.498C133.965 245.499 133.965 245.499 133.965 245.499C133.965 245.499 133.965 245.5 133.965 245.5C133.965 245.5 133.965 245.5 133.965 245.501C133.965 245.501 133.965 245.501 133.965 245.501C133.965 245.502 133.965 245.502 133.965 245.502C133.965 245.502 133.965 245.503 133.965 245.503C133.965 245.503 133.965 245.504 133.965 245.504C133.965 245.504 133.965 245.504 133.965 245.505C133.965 245.505 133.965 245.505 133.965 245.505C133.965 245.506 133.965 245.506 133.965 245.506C133.965 245.506 133.965 245.507 133.965 245.507C133.965 245.507 133.965 245.507 133.965 245.508C133.965 245.508 133.965 245.508 133.965 245.508C133.965 245.509 133.965 245.509 133.965 245.509C133.965 245.51 133.965 245.51 133.965 245.51C133.965 245.51 133.965 245.511 133.965 245.511C133.965 245.511 133.965 245.511 133.965 245.512C133.965 245.512 133.965 245.512 133.965 245.512C133.965 245.513 133.965 245.513 133.965 245.513C133.965 245.513 133.965 245.514 133.965 245.514C133.965 245.514 133.965 245.514 133.965 245.515C133.965 245.515 133.965 245.515 133.965 245.515C133.965 245.516 133.965 245.516 133.965 245.516C133.965 245.516 133.965 245.517 133.965 245.517C133.965 245.517 133.965 245.517 133.965 245.518C133.965 245.518 133.965 245.518 133.965 245.518C133.965 245.519 133.965 245.519 133.965 245.519C133.965 245.519 133.965 245.52 133.965 245.52C133.965 245.52 133.965 245.52 133.965 245.521C133.965 245.521 133.965 245.521 133.965 245.521C133.965 245.522 133.965 245.522 133.965 245.522C133.965 245.522 133.965 245.523 133.965 245.523C133.965 245.523 133.965 245.523 133.965 245.524C133.965 245.524 133.965 245.524 133.965 245.524C133.965 245.525 133.965 245.525 133.965 245.525C133.965 245.525 133.965 245.526 133.965 245.526C133.965 245.526 133.965 245.526 133.965 245.527C133.965 245.527 133.965 245.527 133.965 245.527C133.965 245.528 133.965 245.528 133.965 245.528C133.965 245.528 133.965 245.529 133.965 245.529C133.965 245.529 133.965 245.529 133.965 245.53C133.965 245.53 133.965 245.53 133.965 245.53C133.965 245.531 133.965 245.531 133.965 245.531C133.965 245.531 133.965 245.532 133.965 245.532C133.965 245.532 133.965 245.532 133.965 245.533C133.965 245.533 133.965 245.533 133.965 245.533C133.965 245.534 133.965 245.534 133.965 245.534C133.965 245.534 133.965 245.534 133.965 245.535C133.965 245.535 133.965 245.535 133.965 245.535C133.965 245.536 133.965 245.536 133.965 245.536C133.965 245.536 133.965 245.537 133.965 245.537C133.965 245.537 133.965 245.537 133.965 245.538C133.965 245.538 133.965 245.538 133.965 245.538C133.965 245.539 133.965 245.539 133.965 245.539C133.965 245.539 133.965 245.54 133.965 245.54C133.965 245.54 133.965 245.54 133.965 245.54C133.965 245.541 133.965 245.541 133.965 245.541C133.965 245.541 133.965 245.542 133.965 245.542C133.965 245.542 133.965 245.542 133.965 245.543C133.965 245.543 133.965 245.543 133.965 245.543C133.965 245.544 133.965 245.544 133.965 245.544C133.965 245.544 133.965 245.545 133.965 245.545C133.965 245.545 133.965 245.545 133.965 245.545C133.965 245.546 133.965 245.546 133.965 245.546C133.965 245.546 133.965 245.547 133.965 245.547C133.965 245.547 133.965 245.547 133.965 245.548C133.965 245.548 133.965 245.548 133.965 245.548C133.965 245.549 133.965 245.549 133.965 245.549C133.965 245.549 133.965 245.549 133.965 245.55C133.965 245.55 133.965 245.55 133.965 245.55C133.965 245.551 133.965 245.551 133.965 245.551C133.965 245.551 133.965 245.552 133.965 245.552C133.965 245.552 133.965 245.552 133.965 245.552C133.965 245.553 133.965 245.553 133.965 245.553C133.965 245.553 133.965 245.554 133.965 245.554C133.965 245.554 133.965 245.554 133.965 245.555C133.965 245.555 133.965 245.555 133.965 245.555C133.965 245.555 133.965 245.556 133.965 245.556C133.965 245.556 133.965 245.556 133.965 245.557C133.965 245.557 133.965 245.557 133.965 245.557C133.965 245.558 133.965 245.558 133.965 245.558C133.965 245.558 133.965 245.558 133.965 245.559C133.965 245.559 133.965 245.559 133.965 245.559C133.965 245.56 133.965 245.56 133.965 245.56C133.965 245.56 133.965 245.56 133.965 245.561C133.965 245.561 133.965 245.561 133.965 245.561C133.965 245.562 133.965 245.562 133.965 245.562C133.965 245.562 133.965 245.563 133.965 245.563C133.965 245.563 133.965 245.563 133.965 245.563C133.965 245.564 133.965 245.564 133.965 245.564C133.965 245.564 133.965 245.565 133.965 245.565C133.965 245.565 133.965 245.565 133.965 245.565C133.965 245.566 133.965 245.566 133.965 245.566C133.965 245.566 133.965 245.567 133.965 245.567C133.965 245.567 133.965 245.567 133.965 245.567C133.965 245.568 133.965 245.568 133.965 245.568C133.965 245.568 133.965 245.569 133.965 245.569C133.965 245.569 133.965 245.569 133.965 245.569C133.965 245.57 133.965 245.57 133.965 245.57C133.965 245.57 133.965 245.571 133.965 245.571C133.965 245.571 133.965 245.571 133.965 245.571C133.965 245.572 133.965 245.572 133.965 245.572C133.965 245.572 133.965 245.573 133.965 245.573C133.965 245.573 133.965 245.573 133.965 245.573C133.965 245.574 133.965 245.574 133.965 245.574C133.965 245.574 133.965 245.575 133.965 245.575C133.965 245.575 133.965 245.575 133.965 245.575C133.965 245.576 133.965 245.576 133.965 245.576C133.965 245.576 133.965 245.576 133.965 245.577C133.965 245.577 133.965 245.577 133.965 245.577C133.965 245.578 133.965 245.578 133.965 245.578C133.965 245.578 133.965 245.578 133.965 245.579C133.965 245.579 133.965 245.579 133.965 245.579C133.965 245.58 133.965 245.58 133.965 245.58C133.965 245.58 133.965 245.58 133.965 245.581C133.965 245.581 133.965 245.581 133.965 245.581C133.965 245.581 133.965 245.582 133.965 245.582C133.965 245.582 133.965 245.582 133.965 245.583C133.965 245.583 133.965 245.583 133.965 245.583C133.965 245.583 133.965 245.584 133.965 245.584C133.965 245.584 133.965 245.584 133.965 245.584C133.965 245.585 133.965 245.585 133.965 245.585C133.965 245.585 133.965 245.586 133.965 245.586C133.965 245.586 133.965 245.586 133.965 245.586C133.965 245.587 133.965 245.587 133.965 245.587C133.965 245.587 133.965 245.587 133.965 245.588C133.965 245.588 133.965 245.588 133.965 245.588C133.965 245.588 133.965 245.589 133.965 245.589C133.965 245.589 133.965 245.589 133.965 245.59C133.965 245.59 133.965 245.59 133.965 245.59C133.965 245.59 133.965 245.591 133.965 245.591C133.965 245.591 133.965 245.591 133.965 245.591C133.965 245.592 133.965 245.592 133.965 245.592C133.965 245.592 133.965 245.592 133.965 245.593C133.965 245.593 133.965 245.593 133.965 245.593C133.965 245.594 133.965 245.594 133.965 245.594C133.965 245.594 133.965 245.594 133.965 245.595C133.965 245.595 133.965 245.595 133.965 245.595C133.965 245.595 133.965 245.596 133.965 245.596C133.965 245.596 133.965 245.596 133.965 245.596C133.965 245.597 133.965 245.597 133.965 245.597C133.965 245.597 133.965 245.597 133.965 245.598C133.965 245.598 133.965 245.598 133.965 245.598C133.965 245.598 133.965 245.599 133.965 245.599C133.965 245.599 133.965 245.599 133.965 245.599C133.965 245.6 133.965 245.6 133.965 245.6C133.965 245.6 133.965 245.601 133.965 245.601C133.965 245.601 133.965 245.601 133.965 245.601C133.965 245.602 133.965 245.602 133.965 245.602C133.965 245.602 133.965 245.602 133.965 245.603C133.965 245.603 133.965 245.603 133.965 245.603C133.965 245.603 133.965 245.604 133.965 245.604C133.965 245.604 133.965 245.604 133.965 245.604C133.965 245.605 133.965 245.605 133.965 245.605C133.965 245.605 133.965 245.605 133.965 245.606C133.965 245.606 133.965 245.606 133.965 245.606C133.965 245.606 133.965 245.607 133.965 245.607C133.965 245.607 133.965 245.607 133.965 245.607C133.965 245.608 133.965 245.608 133.965 245.608C133.965 245.608 133.965 245.608 133.965 245.609C133.965 245.609 133.965 245.609 133.965 245.609C133.965 245.609 133.965 245.61 133.965 245.61C133.965 245.61 133.965 245.61 133.965 245.61C133.965 245.611 133.965 245.611 133.965 245.611C133.965 245.611 133.965 245.611 133.965 245.612C133.965 245.612 133.965 245.612 133.965 245.612C133.965 245.612 133.965 245.613 133.965 245.613C133.965 245.613 133.965 245.613 133.965 245.613C133.965 245.614 133.965 245.614 133.965 245.614C133.965 245.614 133.965 245.614 133.965 245.615C133.965 245.615 133.965 245.615 133.965 245.615C133.965 245.615 133.965 245.616 133.965 245.616C133.965 245.616 133.965 245.616 133.965 245.616C133.965 245.617 133.965 245.617 133.965 245.617C133.965 245.617 133.965 245.617 133.965 245.618C133.965 245.618 133.965 245.618 133.965 245.618C133.965 245.618 133.965 245.619 133.965 245.619C133.965 245.619 133.965 245.619 133.965 245.619C133.965 245.619 133.965 245.62 133.965 245.62C133.965 245.62 133.965 245.62 133.965 245.62C133.965 245.621 133.965 245.621 133.965 245.621C133.965 245.621 133.965 245.621 133.965 245.622C133.965 245.622 133.965 245.622 133.965 245.622C133.965 245.622 133.965 245.623 133.965 245.623C133.965 245.623 133.965 245.623 133.965 245.623C133.965 245.624 133.965 245.624 133.965 245.624C133.965 245.624 133.965 245.624 133.965 245.625C133.965 245.625 133.965 245.625 133.965 245.625C133.965 245.625 133.965 245.625 133.965 245.626C133.965 245.626 133.965 245.626 133.965 245.626C133.965 245.626 133.965 245.627 133.965 245.627C133.965 245.627 133.965 245.627 133.965 245.627C133.965 245.628 133.965 245.628 133.965 245.628C133.965 245.628 133.965 245.628 133.965 245.629C133.965 245.629 133.965 245.629 133.965 245.629C133.965 245.629 133.965 245.63 133.965 245.63C133.965 245.63 133.965 245.63 133.965 245.63C133.965 245.63 133.965 245.631 133.965 245.631C133.965 245.631 133.965 245.631 133.965 245.631C133.965 245.632 133.965 245.632 133.965 245.632C133.965 245.632 133.965 245.632 133.965 245.633C133.965 245.633 133.965 245.633 133.965 245.633C133.965 245.633 133.965 245.633 133.965 245.634C133.965 245.634 133.965 245.634 133.965 245.634C133.965 245.634 133.965 245.635 133.965 245.635C133.965 245.635 133.965 245.635 133.965 245.635C133.965 245.636 133.965 245.636 133.965 245.636C133.965 245.636 133.965 245.636 133.965 245.637C133.965 245.637 133.965 245.637 133.965 245.637C133.965 245.637 133.965 245.637 133.965 245.638C133.965 245.638 133.965 245.638 133.965 245.638C133.965 245.638 133.965 245.639 133.965 245.639C133.965 245.639 133.965 245.639 133.965 245.639C133.965 245.639 133.965 245.64 133.965 245.64C133.965 245.64 133.965 245.64 133.965 245.64C133.965 245.641 133.965 245.641 133.965 245.641C133.965 245.641 133.965 245.641 133.965 245.642C133.965 245.642 133.965 245.642 133.965 245.642C133.965 245.642 133.965 245.642 133.965 245.643C133.965 245.643 133.965 245.643 133.965 245.643C133.965 245.643 133.965 245.644 133.965 245.644C133.965 245.644 133.965 245.644 133.965 245.644C133.965 245.644 133.965 245.645 133.965 245.645C133.965 245.645 133.965 245.645 133.965 245.645C133.965 245.646 133.965 245.646 133.965 245.646C133.965 245.646 133.965 245.646 133.965 245.647C133.965 245.647 133.965 245.647 133.965 245.647C133.965 245.647 133.965 245.647 133.965 245.648C133.965 245.648 133.965 245.648 133.965 245.648C133.965 245.648 133.965 245.649 133.965 245.649C133.965 245.649 133.965 245.649 133.965 245.649C133.965 245.649 133.965 245.65 133.965 245.65C133.965 245.65 133.965 245.65 133.965 245.65C133.965 245.651 133.965 245.651 133.965 245.651C133.965 245.651 133.965 245.651 133.965 245.651C133.965 245.652 133.965 245.652 133.965 245.652C133.965 245.652 133.965 245.652 133.965 245.653C133.965 245.653 133.965 245.653 133.965 245.653C133.965 245.653 133.965 245.653 133.965 245.654C133.965 245.654 133.965 245.654 133.965 245.654C133.965 245.654 133.965 245.655 133.965 245.655C133.965 245.655 133.965 245.655 133.965 245.655C133.965 245.655 133.965 245.656 133.965 245.656C133.965 245.656 133.965 245.656 133.965 245.656C133.965 245.656 133.965 245.657 133.965 245.657C133.965 245.657 133.965 245.657 133.965 245.657C133.965 245.658 133.965 245.658 133.965 245.658C133.965 245.658 133.965 245.658 133.965 245.658C133.965 245.659 133.965 245.659 133.965 245.659C133.965 245.659 133.965 245.659 133.965 245.66C133.965 245.66 133.965 245.66 133.965 245.66C133.965 245.66 133.965 245.66 133.965 245.661C133.965 245.661 133.965 245.661 133.965 245.661C133.965 245.661 133.965 245.661 133.965 245.662C133.965 245.662 133.965 245.662 133.965 245.662C133.965 245.662 133.965 245.663 133.965 245.663C133.965 245.663 133.965 245.663 133.965 245.663C133.965 245.663 133.965 245.664 133.965 245.664C133.965 245.664 133.965 245.664 133.965 245.664C133.965 245.664 133.965 245.665 133.965 245.665C133.965 245.665 133.965 245.665 133.965 245.665C133.965 245.666 133.965 245.666 133.965 245.666C133.965 245.666 133.965 245.666 133.965 245.666C133.965 245.667 133.965 245.667 133.965 245.667C133.965 245.667 133.965 245.667 133.965 245.667C133.965 245.668 133.965 245.668 133.965 245.668C133.965 245.668 133.965 245.668 133.965 245.669C133.965 245.669 133.965 245.669 133.965 245.669C133.965 245.669 133.965 245.669 133.965 245.67C133.965 245.67 133.965 245.67 133.965 245.67C133.965 245.67 133.965 245.67 133.965 245.671C133.965 245.671 133.965 245.671 133.965 245.671C133.965 245.671 133.965 245.672 133.965 245.672C133.965 245.672 133.965 245.672 133.965 245.672C133.965 245.672 133.965 245.673 133.965 245.673C133.965 245.673 133.965 245.673 133.965 245.673C133.965 245.673 133.965 245.674 133.965 245.674C133.965 245.674 133.965 245.674 133.965 245.674C133.965 245.674 133.965 245.675 133.965 245.675C133.965 245.675 133.965 245.675 133.965 245.675C133.965 245.676 133.965 245.676 133.965 245.676C133.965 245.676 133.965 245.676 133.965 245.676C133.965 245.677 133.965 245.677 133.965 245.677C133.965 245.677 133.965 245.677 133.965 245.677C133.965 245.678 133.965 245.678 133.965 245.678C133.965 245.678 133.965 245.678 133.965 245.678C133.965 245.679 133.965 245.679 133.965 245.679C133.965 245.679 133.965 245.679 133.965 245.679C133.965 245.68 133.965 245.68 133.965 245.68C133.965 245.68 133.965 245.68 133.965 245.681C133.965 245.681 133.965 245.681 133.965 245.681C133.965 245.681 133.965 245.681 133.965 245.682C133.965 245.682 133.965 245.682 133.965 245.682C133.965 245.682 133.965 245.682 133.965 245.683C133.965 245.683 133.965 245.683 133.965 245.683C133.965 245.683 133.965 245.683 133.965 245.684C133.965 245.684 133.965 245.684 133.965 245.684C133.965 245.684 133.965 245.684 133.965 245.685C133.965 245.685 133.965 245.685 133.965 245.685C133.965 245.685 133.965 245.685 133.965 245.686C133.965 245.686 133.965 245.686 133.965 245.686C133.965 245.686 133.965 245.686 133.965 245.687C133.965 245.687 133.965 245.687 133.965 245.687C133.965 245.687 133.965 245.688 133.965 245.688C133.965 245.688 133.965 245.688 133.965 245.688C133.965 245.688 133.965 245.689 133.965 245.689C133.965 245.689 133.965 245.689 133.965 245.689C133.965 245.689 133.965 245.69 133.965 245.69C133.965 245.69 133.965 245.69 133.965 245.69C133.965 245.69 133.965 245.691 133.965 245.691C133.965 245.691 133.965 245.691 133.965 245.691C133.965 245.691 133.965 245.692 133.965 245.692C133.965 245.692 133.965 245.692 133.965 245.692C133.965 245.692 133.965 245.693 133.965 245.693C133.965 245.693 133.965 245.693 133.965 245.693C133.965 245.693 133.965 245.694 133.965 245.694C133.965 245.694 133.965 245.694 133.965 245.694C133.965 245.694 133.965 245.695 133.965 245.695C133.965 245.695 133.965 245.695 133.965 245.695C133.965 245.695 133.965 245.696 133.965 245.696C133.965 245.696 133.965 245.696 133.965 245.696C133.965 245.696 133.965 245.697 133.965 245.697C133.965 245.697 133.965 245.697 133.965 245.697C133.965 245.697 133.965 245.698 133.965 245.698C133.965 245.698 133.965 245.698 133.965 245.698C133.965 245.698 133.965 245.699 133.965 245.699C133.965 245.699 133.965 245.699 133.965 245.699C133.965 245.699 133.965 245.7 133.965 245.7C133.965 245.7 133.965 245.7 133.965 245.7C133.965 245.7 133.965 245.701 133.965 245.701C133.965 245.701 133.965 245.701 133.965 245.701C133.965 245.701 133.965 245.702 133.965 245.702C133.965 245.702 133.965 245.702 133.965 245.702C133.965 245.702 133.965 245.703 133.965 245.703C133.965 245.703 133.965 245.703 133.965 245.703C133.965 245.704 133.965 245.704 133.965 245.704C133.965 245.704 133.965 245.704 133.965 245.704C133.965 245.705 133.965 245.705 133.965 245.705C133.965 245.705 133.965 245.705 133.965 245.705C133.965 245.706 133.965 245.706 133.965 245.706C133.965 245.706 133.965 245.706 133.965 245.706C133.965 245.707 133.965 245.707 133.965 245.707C133.965 245.707 133.965 245.707 133.965 245.707C133.965 245.707 133.965 245.708 133.965 245.708C133.965 245.708 133.965 245.708 133.965 245.708C133.965 245.708 133.965 245.709 133.965 245.709C133.965 245.709 133.965 245.709 133.965 245.709C133.965 245.709 133.965 245.71 133.965 245.71C133.965 245.71 133.965 245.71 133.965 245.71C133.965 245.71 133.965 245.711 133.965 245.711C133.965 245.711 133.965 245.711 133.965 245.711C133.965 245.711 133.965 245.712 133.965 245.712C133.965 245.712 133.965 245.712 133.965 245.712C133.965 245.712 133.965 245.713 133.965 245.713C133.965 245.713 133.965 245.713 133.965 245.713C133.965 245.713 133.965 245.714 133.965 245.714C133.965 245.714 133.965 245.714 133.965 245.714C133.965 245.714 133.965 245.715 133.965 245.715C133.965 245.715 133.965 245.715 133.965 245.715C133.965 245.715 133.965 245.716 133.965 245.716C133.965 245.716 133.965 245.716 133.965 245.716C133.965 245.716 133.965 245.717 133.965 245.717C133.965 245.717 133.965 245.717 133.965 245.717C133.965 245.717 133.965 245.718 133.965 245.718C133.965 245.718 133.965 245.718 133.965 245.718C133.965 245.718 133.965 245.719 133.965 245.719C133.965 245.719 133.965 245.719 133.965 245.719C133.965 245.719 133.965 245.72 133.965 245.72C133.965 245.72 133.965 245.72 133.965 245.72C133.965 245.72 133.965 245.721 133.965 245.721C133.965 245.721 133.965 245.721 133.965 245.721C133.965 245.721 133.965 245.722 133.965 245.722C133.965 245.722 133.965 245.722 133.965 245.722C133.965 245.722 133.965 245.723 133.965 245.723C133.965 245.723 133.965 245.723 133.965 245.723C133.965 245.723 133.965 245.724 133.965 245.724C133.965 245.724 133.965 245.724 133.965 245.724C133.965 245.724 133.965 245.725 133.965 245.725C133.965 245.725 133.965 245.725 133.965 245.725C133.965 245.725 133.965 245.725 133.965 245.726C133.965 245.726 133.965 245.726 133.965 245.726C133.965 245.726 133.965 245.726 133.965 245.727C133.965 245.727 133.965 245.727 133.965 245.727C133.965 245.727 133.965 245.727 133.965 245.728C133.965 245.728 133.965 245.728 133.965 245.728C133.965 245.728 133.965 245.728 133.965 245.729C133.965 245.729 133.965 245.729 133.965 245.729C133.965 245.729 133.965 245.729 133.965 245.73C133.965 245.73 133.965 245.73 133.965 245.73C133.965 245.73 133.965 245.73 133.965 245.731C133.965 245.731 133.965 245.731 133.965 245.731C133.965 245.731 133.965 245.731 133.965 245.732C133.965 245.732 133.965 245.732 133.965 245.732C133.965 245.732 133.965 245.732 133.965 245.733C133.965 245.733 133.965 245.733 133.965 245.733C133.965 245.733 133.965 245.733 133.965 245.734C133.965 245.734 133.965 245.734 133.965 245.734C133.965 245.734 133.965 245.734 133.965 245.735C133.965 245.735 133.965 245.735 133.965 245.735C133.965 245.735 133.965 245.735 133.965 245.736C133.965 245.736 133.965 245.736 133.965 245.736H136.965ZM136.965 245.4L134.406 243.834C130.003 251.031 126.335 255.672 119.157 255.672V258.672V261.672C129.955 261.672 135.191 254.049 139.524 246.966L136.965 245.4ZM119.157 258.672V255.672C115.506 255.672 113.411 254.285 112.128 252.365C110.731 250.273 110.074 247.187 110.226 243.596L107.229 243.468L104.232 243.34C104.049 247.645 104.777 252.161 107.139 255.697C109.616 259.405 113.652 261.672 119.157 261.672V258.672ZM107.229 243.468L110.225 243.616C110.656 234.915 110.303 229.283 109.126 215.74L106.137 216L103.148 216.26C104.323 229.765 104.642 235.053 104.233 243.32L107.229 243.468ZM106.137 216V219H116.721V216V213H106.137V216ZM116.721 216L113.732 215.74C112.545 229.399 112.545 238.326 112.629 246.858L115.629 246.828L118.629 246.798C118.545 238.362 118.545 229.649 119.71 216.26L116.721 216ZM115.629 246.828L112.817 247.873C114.389 252.105 118.032 254.28 122.265 254.28V251.28V248.28C120.282 248.28 119.053 247.431 118.441 245.783L115.629 246.828ZM122.265 251.28V254.28C127.921 254.28 134.418 250.402 139.522 243.687L137.133 241.872L134.745 240.057C130.272 245.942 125.345 248.28 122.265 248.28V251.28ZM137.133 241.872L140.132 241.943C140.304 234.747 140.044 227.07 139.029 215.732L136.041 216L133.053 216.268C134.054 227.442 134.299 234.885 134.134 241.801L137.133 241.872ZM136.041 216V219H146.289V216V213H136.041V216ZM158.686 232.716V229.716H156.226L155.744 232.128L158.686 232.716ZM189.682 239.604L192.64 240.102L192.646 240.065L192.651 240.028L189.682 239.604ZM191.866 239.688H188.866V239.724L188.866 239.761L191.866 239.688ZM190.774 229.02L187.802 229.433L187.808 229.473L187.814 229.513L190.774 229.02ZM159.358 229.944L156.534 228.929L155.045 233.073L159.446 232.943L159.358 229.944ZM182.038 229.272L182.126 232.271L186.635 232.137L184.769 228.031L182.038 229.272ZM186.322 232.716V229.716H158.686V232.716V235.716H186.322V232.716ZM158.686 232.716L155.744 232.128C155.438 233.658 155.35 235.22 155.35 236.832H158.35H161.35C161.35 235.42 161.429 234.294 161.627 233.304L158.686 232.716ZM158.35 236.832H155.35C155.35 242.986 156.809 247.62 160.54 250.496C164.058 253.208 168.928 253.776 174.142 253.776V250.776V247.776C169.023 247.776 165.997 247.126 164.202 245.743C162.62 244.524 161.35 242.186 161.35 236.832H158.35ZM174.142 250.776V253.776C178.378 253.776 182.556 252.907 185.945 250.695C189.424 248.424 191.834 244.887 192.64 240.102L189.682 239.604L186.723 239.106C186.185 242.301 184.689 244.35 182.666 245.67C180.553 247.049 177.633 247.776 174.142 247.776V250.776ZM189.682 239.604L192.651 240.028C192.571 240.591 192.238 241.115 191.764 241.439C191.36 241.716 190.986 241.764 190.774 241.764V238.764V235.764C190.058 235.764 189.179 235.938 188.376 236.488C187.503 237.085 186.876 238.029 186.712 239.18L189.682 239.604ZM190.774 238.764V241.764C190.706 241.764 190.263 241.76 189.76 241.389C189.486 241.187 189.238 240.904 189.071 240.553C188.907 240.21 188.866 239.899 188.866 239.688H191.866H194.866C194.866 238.5 194.365 237.329 193.32 236.559C192.418 235.894 191.429 235.764 190.774 235.764V238.764ZM191.866 239.688L188.866 239.761C189.013 245.8 186.789 249.629 183.765 252.027C180.623 254.518 176.338 255.672 172.21 255.672V258.672V261.672C177.321 261.672 183.032 260.264 187.492 256.728C192.07 253.099 195.054 247.436 194.865 239.615L191.866 239.688ZM172.21 258.672V255.672C165.855 255.672 161.009 253.73 157.769 250.594C154.537 247.467 152.614 242.874 152.614 237H149.614H146.614C146.614 244.23 149.016 250.473 153.596 254.906C158.168 259.33 164.62 261.672 172.21 261.672V258.672ZM149.614 237H152.614C152.614 225.599 160.716 218.328 170.866 218.328V215.328V212.328C157.496 212.328 146.614 222.193 146.614 237H149.614ZM170.866 215.328V218.328C175.026 218.328 179.115 219.375 182.223 221.316C185.283 223.228 187.317 225.938 187.802 229.433L190.774 229.02L193.745 228.607C192.97 223.03 189.67 218.894 185.401 216.228C181.18 213.591 175.945 212.328 170.866 212.328V215.328ZM190.774 229.02L187.814 229.513C187.787 229.351 187.796 229.225 187.808 229.149C187.82 229.073 187.836 229.035 187.837 229.034C187.838 229.032 187.828 229.054 187.799 229.094C187.77 229.134 187.727 229.185 187.666 229.242C187.418 229.473 186.968 229.716 186.322 229.716V232.716V235.716C188.531 235.716 190.433 234.867 191.76 233.628C192.98 232.49 194.082 230.624 193.733 228.527L190.774 229.02ZM170.95 223.224V220.224C168.139 220.224 165.185 220.577 162.578 221.888C159.858 223.255 157.75 225.546 156.534 228.929L159.358 229.944L162.181 230.959C162.897 228.966 163.981 227.897 165.272 227.248C166.676 226.543 168.552 226.224 170.95 226.224V223.224ZM159.358 229.944L159.446 232.943L182.126 232.271L182.038 229.272L181.949 226.273L159.269 226.945L159.358 229.944ZM182.038 229.272L184.769 228.031C183.435 225.096 181.387 223.068 178.857 221.823C176.398 220.614 173.647 220.224 170.95 220.224V223.224V226.224C173.124 226.224 174.867 226.548 176.209 227.208C177.48 227.832 178.54 228.828 179.306 230.513L182.038 229.272ZM195.471 258L192.473 257.885L192.354 261H195.471V258ZM195.471 199.2V196.2H192.354L192.473 199.315L195.471 199.2ZM205.047 199.2L208.044 199.328L208.177 196.2H205.047V199.2ZM205.047 258V261H208.177L208.044 257.872L205.047 258ZM195.471 258L198.469 258.115C199.228 238.298 199.228 218.902 198.469 199.085L195.471 199.2L192.473 199.315C193.226 218.978 193.226 238.222 192.473 257.885L195.471 258ZM195.471 199.2V202.2H205.047V199.2V196.2H195.471V199.2ZM205.047 199.2L202.05 199.072C201.206 218.897 201.206 238.303 202.05 258.128L205.047 258L208.044 257.872C207.208 238.217 207.208 218.983 208.044 199.328L205.047 199.2ZM205.047 258V255H195.471V258V261H205.047V258ZM222.712 218.268L225.666 218.791L225.671 218.76L225.676 218.729L222.712 218.268ZM217.504 258V261H220.2L220.487 258.319L217.504 258ZM208.348 258L205.414 257.376L204.643 261H208.348V258ZM218.344 199.2V196.2H215.714L215.37 198.808L218.344 199.2ZM232.204 199.2L235.089 198.378L234.469 196.2H232.204V199.2ZM244.636 240.444L247.542 239.701L247.514 239.591L247.478 239.484L244.636 240.444ZM251.104 240.444L248.262 239.484L248.226 239.591L248.198 239.7L251.104 240.444ZM263.032 199.2V196.2H260.767L260.147 198.378L263.032 199.2ZM276.808 199.2L279.784 198.82L279.449 196.2H276.808V199.2ZM286.552 258V261H290.242L289.489 257.388L286.552 258ZM276.556 258L273.573 258.321L273.861 261H276.556V258ZM271.096 218.268L268.132 218.729L268.135 218.751L268.139 218.773L271.096 218.268ZM265.972 218.016L268.816 218.97L268.841 218.897L268.862 218.822L265.972 218.016ZM253.204 258V261H255.432L256.076 258.867L253.204 258ZM241.36 258L238.493 258.884L239.145 261H241.36V258ZM228.508 218.016L225.618 218.822L225.638 218.894L225.662 218.965L228.508 218.016ZM222.712 218.268L219.758 217.745C217.385 231.133 215.948 244.335 214.521 257.681L217.504 258L220.487 258.319C221.916 244.953 223.335 231.947 225.666 218.791L222.712 218.268ZM217.504 258V255H208.348V258V261H217.504V258ZM208.348 258L211.282 258.624C215.501 238.796 218.706 219.397 221.318 199.592L218.344 199.2L215.37 198.808C212.774 218.483 209.595 237.724 205.414 257.376L208.348 258ZM218.344 199.2V202.2H232.204V199.2V196.2H218.344V199.2ZM232.204 199.2L229.319 200.022C233.094 213.277 237.314 228.134 241.794 241.404L244.636 240.444L247.478 239.484C243.054 226.378 238.874 211.667 235.089 198.378L232.204 199.2ZM244.636 240.444L241.73 241.188C242.218 243.098 242.805 244.777 243.549 246.046C244.191 247.141 245.534 248.904 247.828 248.904V245.904V242.904C248.378 242.904 248.737 243.134 248.857 243.232C248.948 243.306 248.887 243.287 248.726 243.011C248.398 242.453 247.978 241.402 247.542 239.701L244.636 240.444ZM247.828 245.904V248.904C250.082 248.904 251.45 247.194 252.122 246.089C252.9 244.813 253.515 243.123 254.01 241.188L251.104 240.444L248.198 239.7C247.769 241.377 247.334 242.417 246.998 242.968C246.833 243.24 246.764 243.27 246.844 243.207C246.945 243.127 247.288 242.904 247.828 242.904V245.904ZM251.104 240.444L253.946 241.404C258.428 228.127 262.176 213.156 265.917 200.022L263.032 199.2L260.147 198.378C256.328 211.788 252.684 226.385 248.262 239.484L251.104 240.444ZM263.032 199.2V202.2H276.808V199.2V196.2H263.032V199.2ZM276.808 199.2L273.832 199.58C276.36 219.385 279.481 238.783 283.615 258.612L286.552 258L289.489 257.388C285.391 237.737 282.296 218.495 279.784 198.82L276.808 199.2ZM286.552 258V255H276.556V258V261H286.552V258ZM276.556 258L279.539 257.679C278.105 244.356 276.333 231.105 274.053 217.763L271.096 218.268L268.139 218.773C270.395 231.975 272.151 245.1 273.573 258.321L276.556 258ZM271.096 218.268L274.06 217.807C273.756 215.847 273.381 214.171 272.899 212.918C272.663 212.304 272.332 211.605 271.839 211.008C271.354 210.42 270.384 209.556 268.912 209.556V212.556V215.556C267.86 215.556 267.299 214.933 267.211 214.826C267.114 214.709 267.167 214.729 267.298 215.071C267.551 215.729 267.848 216.909 268.132 218.729L271.096 218.268ZM268.912 212.556V209.556C267.624 209.556 266.683 210.205 266.131 210.733C265.575 211.265 265.156 211.909 264.834 212.506C264.183 213.71 263.608 215.326 263.082 217.21L265.972 218.016L268.862 218.822C269.344 217.094 269.777 215.98 270.113 215.357C270.284 215.04 270.354 214.997 270.278 215.069C270.206 215.138 269.738 215.556 268.912 215.556V212.556ZM265.972 218.016L263.128 217.062C258.667 230.359 254.374 243.744 250.332 257.133L253.204 258L256.076 258.867C260.098 245.544 264.373 232.217 268.816 218.97L265.972 218.016ZM253.204 258V255H241.36V258V261H253.204V258ZM241.36 258L244.227 257.116C240.103 243.735 235.812 230.441 231.354 217.067L228.508 218.016L225.662 218.965C230.108 232.303 234.385 245.553 238.493 258.884L241.36 258ZM228.508 218.016L231.398 217.21C230.86 215.284 230.225 213.621 229.464 212.371C228.846 211.357 227.502 209.556 225.232 209.556V212.556V215.556C224.614 215.556 224.241 215.287 224.158 215.219C224.088 215.162 224.164 215.204 224.339 215.492C224.691 216.069 225.148 217.136 225.618 218.822L228.508 218.016ZM225.232 212.556V209.556C223.937 209.556 222.967 210.196 222.363 210.807C221.778 211.398 221.373 212.111 221.079 212.762C220.488 214.075 220.059 215.807 219.748 217.807L222.712 218.268L225.676 218.729C225.953 216.949 226.28 215.825 226.55 215.227C226.687 214.922 226.738 214.916 226.629 215.027C226.499 215.157 226.023 215.556 225.232 215.556V212.556ZM298.959 232.716V229.716H296.5L296.017 232.128L298.959 232.716ZM329.955 239.604L332.913 240.102L332.92 240.065L332.925 240.028L329.955 239.604ZM332.139 239.688H329.139V239.724L329.14 239.761L332.139 239.688ZM331.047 229.02L328.076 229.433L328.081 229.473L328.088 229.513L331.047 229.02ZM299.631 229.944L296.808 228.929L295.319 233.073L299.72 232.943L299.631 229.944ZM322.311 229.272L322.4 232.271L326.909 232.137L325.042 228.031L322.311 229.272ZM326.595 232.716V229.716H298.959V232.716V235.716H326.595V232.716ZM298.959 232.716L296.017 232.128C295.711 233.658 295.623 235.22 295.623 236.832H298.623H301.623C301.623 235.42 301.703 234.294 301.901 233.304L298.959 232.716ZM298.623 236.832H295.623C295.623 242.986 297.082 247.62 300.813 250.496C304.332 253.208 309.201 253.776 314.415 253.776V250.776V247.776C309.297 247.776 306.27 247.126 304.476 245.743C302.894 244.524 301.623 242.186 301.623 236.832H298.623ZM314.415 250.776V253.776C318.651 253.776 322.83 252.907 326.219 250.695C329.697 248.424 332.108 244.887 332.913 240.102L329.955 239.604L326.997 239.106C326.459 242.301 324.963 244.35 322.939 245.67C320.826 247.049 317.907 247.776 314.415 247.776V250.776ZM329.955 239.604L332.925 240.028C332.845 240.591 332.512 241.115 332.038 241.439C331.634 241.716 331.259 241.764 331.047 241.764V238.764V235.764C330.331 235.764 329.453 235.938 328.649 236.488C327.776 237.085 327.15 238.029 326.985 239.18L329.955 239.604ZM331.047 238.764V241.764C330.98 241.764 330.537 241.76 330.034 241.389C329.76 241.187 329.512 240.904 329.344 240.553C329.18 240.21 329.139 239.899 329.139 239.688H332.139H335.139C335.139 238.5 334.638 237.329 333.593 236.559C332.691 235.894 331.703 235.764 331.047 235.764V238.764ZM332.139 239.688L329.14 239.761C329.286 245.8 327.063 249.629 324.038 252.027C320.896 254.518 316.611 255.672 312.483 255.672V258.672V261.672C317.595 261.672 323.306 260.264 327.766 256.728C332.343 253.099 335.328 247.436 335.138 239.615L332.139 239.688ZM312.483 258.672V255.672C306.129 255.672 301.283 253.73 298.042 250.594C294.811 247.467 292.887 242.874 292.887 237H289.887H286.887C286.887 244.23 289.289 250.473 293.87 254.906C298.441 259.33 304.893 261.672 312.483 261.672V258.672ZM289.887 237H292.887C292.887 225.599 300.989 218.328 311.139 218.328V215.328V212.328C297.769 212.328 286.887 222.193 286.887 237H289.887ZM311.139 215.328V218.328C315.3 218.328 319.389 219.375 322.496 221.316C325.557 223.228 327.59 225.938 328.076 229.433L331.047 229.02L334.019 228.607C333.244 223.03 329.943 218.894 325.675 216.228C321.454 213.591 316.218 212.328 311.139 212.328V215.328ZM331.047 229.02L328.088 229.513C328.061 229.351 328.069 229.225 328.081 229.149C328.093 229.073 328.11 229.035 328.11 229.034C328.111 229.032 328.102 229.054 328.073 229.094C328.044 229.134 328 229.185 327.94 229.242C327.692 229.473 327.242 229.716 326.595 229.716V232.716V235.716C328.804 235.716 330.706 234.867 332.033 233.628C333.253 232.49 334.356 230.624 334.006 228.527L331.047 229.02ZM311.223 223.224V220.224C308.412 220.224 305.458 220.577 302.851 221.888C300.132 223.255 298.024 225.546 296.808 228.929L299.631 229.944L302.454 230.959C303.17 228.966 304.255 227.897 305.546 227.248C306.95 226.543 308.826 226.224 311.223 226.224V223.224ZM299.631 229.944L299.72 232.943L322.4 232.271L322.311 229.272L322.222 226.273L299.542 226.945L299.631 229.944ZM322.311 229.272L325.042 228.031C323.708 225.096 321.661 223.068 319.13 221.823C316.671 220.614 313.921 220.224 311.223 220.224V223.224V226.224C313.397 226.224 315.141 226.548 316.483 227.208C317.753 227.832 318.814 228.828 319.58 230.513L322.311 229.272Z" fill="url(#paint6_linear_8_171)" mask="url(#path-2-outside-1_8_171)"/>
<path d="M339.431 159.038H361.543V294.387C349.331 294.387 339.431 284.487 339.431 272.275V159.038Z" fill="url(#paint7_linear_8_171)"/>
<path d="M320 57.5238C320 36.2477 337.248 19 358.524 19C360.191 19 361.543 20.3515 361.543 22.0187V165.069H347.443C332.287 165.069 320 152.782 320 137.626V57.5238Z" fill="url(#paint8_linear_8_171)"/>
<path d="M195 54.5C198.762 54.5 201.812 57.5501 201.812 61.3125V81.75C201.812 85.5124 198.762 88.5625 195 88.5625C191.238 88.5625 188.188 85.5124 188.188 81.75V61.3125C188.188 57.5501 191.238 54.5 195 54.5Z" fill="url(#paint9_linear_8_171)"/>
<path d="M136.852 78.1017C139.512 75.4412 143.826 75.4412 146.486 78.1017L158.942 90.5578C161.603 93.2183 161.603 97.5317 158.942 100.192C156.282 102.853 151.968 102.853 149.308 100.192L136.852 87.736C134.191 85.0756 134.191 80.7621 136.852 78.1017Z" fill="url(#paint10_linear_8_171)"/>
<path d="M113.25 136.25C113.25 132.488 116.3 129.438 120.062 129.438H141.669C145.431 129.438 148.481 132.488 148.481 136.25C148.481 140.012 145.431 143.063 141.669 143.063H120.062C116.3 143.063 113.25 140.012 113.25 136.25Z" fill="url(#paint11_linear_8_171)"/>
<path d="M242.688 136.25C242.688 132.488 245.738 129.438 249.5 129.438H269.938C273.7 129.438 276.75 132.488 276.75 136.25C276.75 140.012 273.7 143.063 269.938 143.063H249.5C245.738 143.063 242.688 140.012 242.688 136.25Z" fill="url(#paint12_linear_8_171)"/>
<path d="M252.965 78.4013C251.01 76.4462 247.88 76.3248 245.78 78.1224L188.831 126.856C183.343 131.553 183.018 139.929 188.126 145.036C193.351 150.262 201.96 149.782 206.572 144.009L253.358 85.4496C255.041 83.343 254.872 80.3079 252.965 78.4013Z" fill="url(#paint13_linear_8_171)"/>
<path fill-rule="evenodd" clip-rule="evenodd" d="M86 136.25C86 76.051 134.801 27.25 195 27.25C255.199 27.25 304 76.051 304 136.25C304 148.95 301.825 161.157 297.822 172.509C291.801 189.583 272.694 194.339 257.875 189.537C240.088 183.773 215.085 177.125 195 177.125C174.915 177.125 149.912 183.773 132.125 189.537C117.306 194.339 98.199 189.583 92.178 172.509C88.1748 161.157 86 148.95 86 136.25ZM195 40.875C142.326 40.875 99.625 83.5758 99.625 136.25C99.625 147.385 101.53 158.061 105.027 167.978C107.794 175.822 117.607 179.919 127.925 176.575C145.897 170.751 172.633 163.5 195 163.5C217.367 163.5 244.103 170.751 262.075 176.575C272.393 179.919 282.206 175.822 284.973 167.978C288.47 158.061 290.375 147.385 290.375 136.25C290.375 83.5758 247.674 40.875 195 40.875Z" fill="url(#paint14_linear_8_171)"/>
<defs>
<linearGradient id="paint0_linear_8_171" x1="39.5324" y1="24" x2="39.5324" y2="290" gradientUnits="userSpaceOnUse">
<stop stop-color="#73AF6F"/>
<stop offset="1" stop-color="#007E6E"/>
</linearGradient>
<linearGradient id="paint1_linear_8_171" x1="39.5324" y1="24" x2="39.5324" y2="290" gradientUnits="userSpaceOnUse">
<stop stop-color="#73AF6F"/>
<stop offset="1" stop-color="#007E6E"/>
</linearGradient>
<linearGradient id="paint2_linear_8_171" x1="39.5324" y1="24" x2="39.5324" y2="290" gradientUnits="userSpaceOnUse">
<stop stop-color="#73AF6F"/>
<stop offset="1" stop-color="#007E6E"/>
</linearGradient>
<linearGradient id="paint3_linear_8_171" x1="39.5324" y1="24" x2="39.5324" y2="290" gradientUnits="userSpaceOnUse">
<stop stop-color="#73AF6F"/>
<stop offset="1" stop-color="#007E6E"/>
</linearGradient>
<linearGradient id="paint4_linear_8_171" x1="39.5324" y1="24" x2="39.5324" y2="290" gradientUnits="userSpaceOnUse">
<stop stop-color="#73AF6F"/>
<stop offset="1" stop-color="#007E6E"/>
</linearGradient>
<linearGradient id="paint5_linear_8_171" x1="39.5324" y1="24" x2="39.5324" y2="290" gradientUnits="userSpaceOnUse">
<stop stop-color="#73AF6F"/>
<stop offset="1" stop-color="#007E6E"/>
</linearGradient>
<linearGradient id="paint6_linear_8_171" x1="199.5" y1="191" x2="199.5" y2="283" gradientUnits="userSpaceOnUse">
<stop stop-color="#73AF6F"/>
<stop offset="1" stop-color="#007E6E"/>
</linearGradient>
<linearGradient id="paint7_linear_8_171" x1="340.771" y1="19" x2="340.771" y2="294.387" gradientUnits="userSpaceOnUse">
<stop stop-color="#73AF6F"/>
<stop offset="1" stop-color="#007E6E"/>
</linearGradient>
<linearGradient id="paint8_linear_8_171" x1="340.771" y1="19" x2="340.771" y2="294.387" gradientUnits="userSpaceOnUse">
<stop stop-color="#73AF6F"/>
<stop offset="1" stop-color="#007E6E"/>
</linearGradient>
<linearGradient id="paint9_linear_8_171" x1="195" y1="27.25" x2="195" y2="191.305" gradientUnits="userSpaceOnUse">
<stop stop-color="#73AF6F"/>
<stop offset="1" stop-color="#007E6E"/>
</linearGradient>
<linearGradient id="paint10_linear_8_171" x1="195" y1="27.25" x2="195" y2="191.305" gradientUnits="userSpaceOnUse">
<stop stop-color="#73AF6F"/>
<stop offset="1" stop-color="#007E6E"/>
</linearGradient>
<linearGradient id="paint11_linear_8_171" x1="195" y1="27.25" x2="195" y2="191.305" gradientUnits="userSpaceOnUse">
<stop stop-color="#73AF6F"/>
<stop offset="1" stop-color="#007E6E"/>
</linearGradient>
<linearGradient id="paint12_linear_8_171" x1="195" y1="27.25" x2="195" y2="191.305" gradientUnits="userSpaceOnUse">
<stop stop-color="#73AF6F"/>
<stop offset="1" stop-color="#007E6E"/>
</linearGradient>
<linearGradient id="paint13_linear_8_171" x1="195" y1="27.25" x2="195" y2="191.305" gradientUnits="userSpaceOnUse">
<stop stop-color="#73AF6F"/>
<stop offset="1" stop-color="#007E6E"/>
</linearGradient>
<linearGradient id="paint14_linear_8_171" x1="195" y1="27.25" x2="195" y2="191.305" gradientUnits="userSpaceOnUse">
<stop stop-color="#73AF6F"/>
<stop offset="1" stop-color="#007E6E"/>
</linearGradient>
</defs>
</svg>
